Simulation
nRows=38
nColumns=15
endheader
time  TH_x TH_y TH_z SC_y  SC_z  SC_x  AC_y  AC_z  AC_x  GH_y  GH_z  GH_yy  EL_x  PS_y
0.0  0.000000  0.000000  0.000000  -8.21893530323222  0.23715923143476392  6.133003872860175  52.38391606545871  0.5739463062142207  -18.639925346581023  56.369177071095116  14.688288064790772  -29.794806039613373  22.933334529890487  120.000000
0.02789999999999999  0.000000  0.000000  0.000000  -8.393005970905271  0.4109567539171736  5.673366970037403  52.35194748507609  1.1823682914051943  -18.292077113676452  52.87570077046447  14.48519911145447  -26.290663183765034  22.642540972804504  120.000000
0.05579999999999998  0.000000  0.000000  0.000000  -8.56294535889535  0.4917027309241041  5.140589747775645  52.35480066096788  1.695752949027608  -17.793571135932655  50.01548000362133  14.432997688468959  -23.48227963222034  22.43969326267099  120.000000
0.08369999999999997  0.000000  0.000000  0.000000  -8.701302100458753  0.4847114559684741  4.555876186750815  52.40086758560458  2.145815350699731  -17.21430742766612  47.90952174006214  14.524091158621236  -21.477490311458574  22.311223439742918  120.000000
0.11159999999999996  0.000000  0.000000  0.000000  -8.801330939807984  0.40928825312265704  3.9234486737047995  52.500945586714984  2.578247336209486  -16.618571587797394  46.59838458032999  14.761670343459004  -20.311267668343653  22.243238684581367  120.000000
0.13949999999999996  0.000000  0.000000  0.000000  -8.862642308822801  0.2936396435388544  3.258167625277326  52.64732380324537  3.0298620522391673  -16.057745889235687  45.99047990784227  15.134603057194932  -19.89289014099114  22.215657304884907  120.000000
0.16739999999999994  0.000000  0.000000  0.000000  -8.891560110472573  0.15795263033498771  2.584152457116109  52.8166601421849  3.5247035878087707  -15.561783120034887  45.88905288122273  15.632127586799724  -20.034338035781097  22.20671520499202  120.000000
0.19529999999999995  0.000000  0.000000  0.000000  -8.893291470331848  0.01557245642099351  1.9461763388204307  52.98645046636823  4.0599014211591475  -15.139266755262028  46.097142095844475  16.2381072160203  -20.547785258366087  22.19626187522052  120.000000
0.22319999999999993  0.000000  0.000000  0.000000  -8.867141882919293  -0.12266595842701151  1.3654850342573048  53.150032373929115  4.623394626119136  -14.782841793966082  46.46248400642757  16.950004906701608  -21.290880494478152  22.172553550251205  120.000000
0.25109999999999993  0.000000  0.000000  0.000000  -8.80913174023231  -0.24387767105509633  0.8568023968046647  53.31160450449444  5.195926410812879  -14.482793005680232  46.891558532238605  17.764907418734243  -22.17668283555204  22.128170567465688  120.000000
0.2789999999999999  0.000000  0.000000  0.000000  -8.720643018923813  -0.3386674646371676  0.4253601482139057  53.476378418592276  5.761374204218349  -14.226926396577447  47.32533173361758  18.684550575381163  -23.151640114491215  22.059228416997254  120.000000
0.3068999999999999  0.000000  0.000000  0.000000  -8.605965784709584  -0.40038030099647576  0.07510632074984425  53.64853991042276  6.30668691145017  -14.003449439641843  47.73514503464099  19.709485458499554  -24.188733449279542  21.96215058791196  120.000000
0.3347999999999999  0.000000  0.000000  0.000000  -8.471773971682431  -0.4244310071361122  -0.1932998199494671  53.831346961259634  6.822615361528796  -13.802864334174275  48.10910482236738  20.843320562037107  -25.275121990359096  21.83481226310839  120.000000
0.36269999999999986  0.000000  0.000000  0.000000  -8.329568646808648  -0.4094271379060463  -0.3804609106139541  54.02792756346606  7.30385770847303  -13.61876231048325  48.44389692545289  22.088918752132884  -26.403009572476247  21.674966729904774  120.000000
0.3905999999999999  0.000000  0.000000  0.000000  -8.188945987397899  -0.35390444446460917  -0.48781012592495393  54.24150991496464  7.746710600350399  -13.447865696718827  48.74035682932025  23.450036939155886  -27.566404057273044  21.4815294706783  120.000000
0.41849999999999987  0.000000  0.000000  0.000000  -8.061585148016984  -0.2605467687692742  -0.5160203364203686  54.47571550579441  8.151590841419372  -13.287025600851349  48.99759398512753  24.928895476556747  -28.755865436645394  21.25453122813099  120.000000
0.44639999999999985  0.000000  0.000000  0.000000  -7.95509323840267  -0.13082687326149303  -0.46607067128607876  54.73452661934355  8.520049412590023  -13.132785043650502  49.21414218897451  26.52579384913555  -29.96003383813504  20.996340225270263  120.000000
0.47429999999999983  0.000000  0.000000  0.000000  -7.876748403353792  0.03105556644830272  -0.33971199589394546  55.02253517695797  8.855767697636091  -12.982491318657129  49.38483238927787  28.236383750295072  -31.164307805717545  20.711221694080255  120.000000
0.5021999999999999  0.000000  0.000000  0.000000  -7.830813589248749  0.22335420434558154  -0.13774144560496873  55.34424410837617  9.163139611368235  -12.833017858405949  49.50438871137722  30.052174169998487  -32.353733031919624  20.406294914489724  120.000000
0.5300999999999998  0.000000  0.000000  0.000000  -7.820910655055118  0.44271943180380374  0.13740553131460417  55.70297762571456  9.448356940445064  -12.68098610898441  49.56674330916767  31.959173211208842  -33.51429963840706  20.08968332912584  120.000000
0.5579999999999998  0.000000  0.000000  0.000000  -7.851037466746509  0.6869606161068043  0.4842872484082964  56.10070741383329  9.715929346670784  -12.522992527868011  49.569187805612074  33.93727513840065  -34.635406273023804  19.770090986522565  120.000000
0.5858999999999998  0.000000  0.000000  0.000000  -7.926923945491987  0.9539769004420732  0.9004766162172575  56.538391269985276  9.970879561900402  -12.355702316246626  49.511772230401796  35.96403320023495  -35.71151096258394  19.455087709199606  120.000000
0.6137999999999998  0.000000  0.000000  0.000000  -8.05499004330127  1.2443334163430138  1.3864518337047442  57.015983782794  10.218087672530242  -12.175642112101034  49.39760891840598  38.01530676068676  -36.740961554091555  19.151091001751357  120.000000
0.6416999999999998  0.000000  0.000000  0.000000  -8.244949325333332  1.5606934845385985  1.941884696924588  57.53271861427333  10.462503412337934  -11.979066354635762  49.23311003599314  40.0680136546779  -37.72740231637364  18.862529772437586  120.000000
0.6695999999999998  0.000000  0.000000  0.000000  -8.505716379254517  1.9060065297705422  2.5682348532388755  58.08586176271084  10.70852245245993  -11.761912025638816  49.02524661371306  42.09860924876391  -38.67590113501626  18.59247430742857  120.000000
0.6974999999999998  0.000000  0.000000  0.000000  -8.847531198063537  2.284692541777401  3.2664147111788293  58.67221610550794  10.957709447368462  -11.51906758571841  48.7824012314977  44.08564491140266  -39.59402810485072  18.343719457310236  120.000000
0.7253999999999997  0.000000  0.000000  0.000000  -9.277009156950623  2.699526996197634  4.039210923382911  59.28686330932253  11.209004299556756  -11.244863398508533  48.5100210651834  46.00812105652315  -40.487324418395964  18.119872752685467  120.000000
0.7532999999999997  0.000000  0.000000  0.000000  -9.797421789198182  3.154393491150417  4.887306596142516  59.924383173159896  11.458181136016012  -10.932102928720346  48.21107547218423  47.84729216922071  -41.360388812254506  17.926373354213155  120.000000
0.7811999999999998  0.000000  0.000000  0.000000  -10.408473111455969  3.649751963205503  5.811696934560112  60.57904405644745  11.69816174796491  -10.57197468795015  47.88542482319336  49.585707435898705  -42.21542564168668  17.771505382597084  120.000000
0.8090999999999997  0.000000  0.000000  0.000000  -11.101956463611334  4.187359186474357  6.8088358934154565  61.245550622981746  11.920274356189832  -10.155431588589726  47.52913466060949  51.209684703064106  -43.05266410773226  17.66596154601451  120.000000
0.8369999999999997  0.000000  0.000000  0.000000  -11.869201564016782  4.765272714395007  7.876350689559264  61.920631832513884  12.114465544059295  -9.67294511026005  47.13762423551112  52.70895232437998  -43.87124475956134  17.622454978407642  120.000000
0.8648999999999997  0.000000  0.000000  0.000000  -12.69520022532297  5.381580868073078  9.007733648881617  62.60020173218345  12.272811470476697  -9.117361223360831  46.702445812864  54.07708555205372  -44.66796504445239  17.65298381779479  120.000000
0.8927999999999997  0.000000  0.000000  0.000000  -13.567720978650309  6.031490616634286  10.198137074609408  63.28239695913907  12.388067156870669  -8.483224665085737  46.21673086816266  55.31143213899295  -45.43907060496642  17.76773617061131  120.000000
0.9206999999999997  0.000000  0.000000  0.000000  -14.47148042362203  6.708688942879556  11.440006534717961  63.9643988242454  12.457754295031195  -7.769381330194414  45.671455828620736  56.41313580865712  -46.17886242180585  17.972927502688336  120.000000
0.9485999999999997  0.000000  0.000000  0.000000  -15.394883296908247  7.405981870439194  12.727755542294274  64.64506278874998  12.480856777057747  -6.97765875891624  45.06048504584302  57.386773424626064  -46.881441154040175  18.27034268951036  120.000000
0.9764999999999997  0.000000  0.000000  0.000000  -16.326525571869894  8.11370434978016  14.05408196106123  65.32195527124239  12.46026322711596  -6.114041661494381  44.377046469332356  58.23928771904759  -47.539972426428996  18.657282389883342  120.000000
1.0043999999999997  0.000000  0.000000  0.000000  -17.258009811367042  8.823186789430085  15.412420756051677  65.99246810947987  12.398120823713011  -5.187160695213354  43.61747811856879  58.97929707593511  -48.14834497868925  19.12624966603999  120.000000
1.0322999999999996  0.000000  0.000000  0.000000  -18.183727500595978  9.523806572181211  16.795059553219087  66.65245674720893  12.297835264669725  -4.208612293717523  42.779382359283545  59.61609424396398  -48.701269854878056  19.6657280101239  120.000000
